<?xml version="1.0" standalone="no"?><!DOCTYPE svg PUBLIC "-//W3C//DTD SVG 1.1//EN" "http://www.w3.org/Graphics/SVG/1.1/DTD/svg11.dtd"><svg t="1620467266039" class="icon" viewBox="0 0 1024 1024" version="1.1" xmlns="http://www.w3.org/2000/svg" p-id="13789" xmlns:xlink="http://www.w3.org/1999/xlink" width="16" height="16"><defs><style type="text/css"></style></defs><path d="M86.7 288a37.9 27.3 0 1 0 75.8 0 37.9 27.3 0 1 0-75.8 0Z" p-id="13790" fill="#1afa29"></path><path d="M888.6 356.7a37.9 27.3 0 1 0 75.8 0 37.9 27.3 0 1 0-75.8 0Z" p-id="13791" fill="#1afa29"></path><path d="M14.3 555.4a37.9 27.3 0 1 0 75.8 0 37.9 27.3 0 1 0-75.8 0Z" p-id="13792" fill="#1afa29"></path><path d="M259.6 315.4a57.3 41.3 0 1 0 114.6 0 57.3 41.3 0 1 0-114.6 0Z" p-id="13793" fill="#1afa29"></path><path d="M174.8 497.1a84.7 61.1 0 1 0 169.4 0 84.7 61.1 0 1 0-169.4 0Z" p-id="13794" fill="#1afa29"></path><path d="M557.7 821.8a84.7 61.1 0 1 0 169.4 0 84.7 61.1 0 1 0-169.4 0Z" p-id="13795" fill="#1afa29"></path><path d="M293.1 684.9a47 33.9 0 1 0 94 0 47 33.9 0 1 0-94 0Z" p-id="13796" fill="#1afa29"></path><path d="M743 657.7a84.7 61.1 0 1 0 169.4 0 84.7 61.1 0 1 0-169.4 0Z" p-id="13797" fill="#1afa29"></path><path d="M642.4 453a84.7 61.1 0 1 0 169.4 0 84.7 61.1 0 1 0-169.4 0Z" p-id="13798" fill="#1afa29"></path><path d="M834.7 506.4a84.7 61.1 0 1 0 169.4 0 84.7 61.1 0 1 0-169.4 0Z" p-id="13799" fill="#1afa29"></path><path d="M700.6 227a84.7 61.1 0 1 0 169.4 0 84.7 61.1 0 1 0-169.4 0Z" p-id="13800" fill="#1afa29"></path><path d="M455.3 627.5a84.7 61.1 0 1 0 169.4 0 84.7 61.1 0 1 0-169.4 0Z" p-id="13801" fill="#1afa29"></path><path d="M136 749.4a58.3 42 0 1 0 116.6 0 58.3 42 0 1 0-116.6 0Z" p-id="13802" fill="#1afa29"></path><path d="M455.3 204.2a58.3 42 0 1 0 116.6 0 58.3 42 0 1 0-116.6 0Z" p-id="13803" fill="#1afa29"></path><path d="M430.6 426.1a58.3 42 0 1 0 116.6 0 58.3 42 0 1 0-116.6 0Z" p-id="13804" fill="#1afa29"></path><path d="M300.2 853.6a58.3 42 0 1 0 116.6 0 58.3 42 0 1 0-116.6 0Z" p-id="13805" fill="#1afa29"></path></svg>