<?xml version="1.0" standalone="no"?><!DOCTYPE svg PUBLIC "-//W3C//DTD SVG 1.1//EN" "http://www.w3.org/Graphics/SVG/1.1/DTD/svg11.dtd"><svg t="1620998474788" class="icon" viewBox="0 0 1024 1024" version="1.1" xmlns="http://www.w3.org/2000/svg" p-id="5175" xmlns:xlink="http://www.w3.org/1999/xlink" width="128" height="128"><defs><style type="text/css"></style></defs><path d="M753.30494 929.320947c0-12.40933 5.974863-21.141822 45.960482-76.754005 51.47574-68.481118 137.881446-183.841928 152.588801-249.105812H68.493757c15.166959 66.183094 101.113061 180.624695 152.588801 249.105812 43.662458 55.612183 49.637321 66.642699 49.63732 76.754005" fill="#73B6EA" p-id="5176"></path><path d="M376.888592 232.100434h270.247635v45.960482A120.416463 120.416463 0 0 1 528.098578 400.315799h-32.172337A120.416463 120.416463 0 0 1 375.969382 280.358941v-45.960482l0.91921-2.298025z" fill="#FFFFFF" p-id="5177"></path><path d="M528.098578 423.29604h-32.172337a137.881446 137.881446 0 0 1-142.9371-131.446979V229.80241h317.127327v65.263885A137.881446 137.881446 0 0 1 528.098578 423.29604zM398.949623 268.86882v22.980241a91.920964 91.920964 0 0 0 96.976618 89.163335h32.172337a91.920964 91.920964 0 0 0 96.976617-89.163335v-22.980241z" fill="#434C57" p-id="5178"></path><path d="M849.821953 1023.99954H176.50089a29.874313 29.874313 0 0 1-16.086168-55.152578 454.089563 454.089563 0 0 0 60.208231-41.824039c-7.813282-11.030516-21.601427-29.874313-34.470362-45.960482C128.701989 804.308436 42.755887 689.407231 25.290904 614.03204a81.809658 81.809658 0 0 1 11.030516-66.642699c36.308781-53.314159 134.664212-68.940723 206.822169-80.430843 18.843798-3.217234 35.389571-5.974863 45.960482-8.732492a97.895827 97.895827 0 0 0 62.965861-68.940723V229.80241a63.425465 63.425465 0 0 1 29.414708-53.314159l36.308781-22.520636a60.667836 60.667836 0 0 1 31.712733-9.192096H574.05906a60.667836 60.667836 0 0 1 31.712733 9.192096l36.308781 22.520636A63.425465 63.425465 0 0 1 671.035677 229.80241v159.942478A98.815036 98.815036 0 0 0 734.001538 459.604821c11.490121 2.757629 28.035894 5.515258 45.960482 8.732491 72.157957 11.490121 170.513388 27.116684 206.822169 80.430844a82.269263 82.269263 0 0 1 11.490121 66.642699C981.728536 689.407231 895.782435 804.308436 838.331832 880.143232c-12.868935 17.005378-27.116684 35.849176-34.929966 45.960482a454.089563 454.089563 0 0 0 60.208231 41.824038 29.874313 29.874313 0 0 1-16.086169 55.152579z m-617.708879-45.960482h562.096695c-37.22799-26.65708-40.904829-37.687595-40.904829-48.718111s5.974863-21.141822 45.960482-76.754005c51.47574-68.481118 137.881446-183.841928 152.588801-249.105812a35.849176 35.849176 0 0 0-4.596049-30.333919c-24.81866-36.768386-119.497253-51.935345-175.569041-61.127441-20.682217-3.217234-38.606805-5.974863-51.47574-9.192096a143.856309 143.856309 0 0 1-96.517012-105.249504V229.80241a16.545774 16.545774 0 0 0-7.813282-14.247749l-36.308781-22.520636a13.788145 13.788145 0 0 0-7.353677 0H450.425363a15.166959 15.166959 0 0 0-7.353677 0l-36.308781 22.520636a16.545774 16.545774 0 0 0-7.813282 14.247749v167.75576a145.694728 145.694728 0 0 1-96.976617 105.249504c-12.868935 3.217234-30.793523 5.974863-51.47574 9.192096-56.071788 9.192096-150.750381 24.359055-175.569041 61.127441a35.849176 35.849176 0 0 0-4.596048 30.333919c15.166959 66.183094 101.113061 180.624695 152.5888 249.105812 41.824039 55.612183 47.798901 66.642699 47.798901 76.754005s-3.676839 22.061031-40.904829 48.718111z" fill="#fff" p-id="5179"></path><path d="M681.146983 940.811068H353.448746l16.086169-70.779143h9.651701c72.617562 2.757629 196.251258 0 219.2315-22.980241 0 0 2.298024-2.298024 2.298024-3.217233 0-15.626564-43.202853-56.531393-71.238747-83.648078S473.405604 705.953005 469.728766 689.407231c-8.272887-32.172337-7.813282-261.055538-7.813282-287.253013v-10.111306h103.411085v11.949725c0 109.845552 0 233.479249 2.757628 246.807789 0 3.217234 19.763007 23.439846 36.768386 42.283644a612.193621 612.193621 0 0 1 116.739625 152.129195 106.168714 106.168714 0 0 1-15.626564 82.269263 31.253128 31.253128 0 0 1-24.818661 13.32854zM382.40385 919.209641h298.743133c2.757629 0 5.515258-3.217234 6.894073-5.055653a84.567287 84.567287 0 0 0 11.030515-62.96586 781.328195 781.328195 0 0 0-111.224366-141.09868 413.644339 413.644339 0 0 1-40.904829-48.258506A2026.857259 2026.857259 0 0 1 541.886723 413.644339h-56.990998c0 101.113061 0 248.646208 6.894072 270.247634a321.723374 321.723374 0 0 0 53.314159 58.369812c45.960482 45.960482 78.592424 76.754005 78.592425 100.193851a28.035894 28.035894 0 0 1-9.192097 19.763008c-34.010757 32.631942-183.841928 31.253128-226.585176 29.874313zM434.339195 96.517012h155.346429v90.54215H434.339195z" fill="#434C57" p-id="5180"></path><path d="M571.301431 142.477494H452.723387V22.061031h118.578044z m-72.617561-45.960482h26.657079v-28.495499h-26.657079z" fill="#434C57" p-id="5181"></path><path d="M575.897479 48.258506H528.098578l-8.272887 31.712733-31.712732-23.899451-44.581668 6.434468 29.414709-31.253128L464.213508 0l39.526015 6.894072 40.445224-6.894072 4.136443 25.73787 19.763007-1.838419 7.813282 24.359055zM247.739637 906.340706h528.545544v45.960482H247.739637z" fill="#434C57" p-id="5182"></path></svg>