<?xml version="1.0" standalone="no"?><!DOCTYPE svg PUBLIC "-//W3C//DTD SVG 1.1//EN" "http://www.w3.org/Graphics/SVG/1.1/DTD/svg11.dtd"><svg t="1620897035040" class="icon" viewBox="0 0 1024 1024" version="1.1" xmlns="http://www.w3.org/2000/svg" p-id="657" xmlns:xlink="http://www.w3.org/1999/xlink" width="128" height="128"><defs><style type="text/css"></style></defs><path d="M351.373 354.384h329.286v51.2H351.373z" p-id="658" fill="#ffffff"></path><path d="M764.988 907.545H267.043c-36.141 0-70.274-19.074-87.341-50.196-16.063-29.114-16.063-63.247 1.004-91.357l234.918-386.51h199.78l234.918 386.51c17.066 28.11 18.07 63.247 1.003 91.357-16.062 31.122-50.196 50.196-86.337 50.196zM427.671 399.561L198.776 776.03c-14.054 22.087-14.054 48.189-1.003 71.279 14.054 25.098 40.156 40.157 70.274 40.157h497.945c30.118 0 56.22-15.06 70.275-40.157 13.05-23.09 12.047-49.192-1.004-71.279l-228.894-376.47H427.67z" p-id="659" fill="#ffffff"></path><path d="M401.569 746.918l-7.028-7.028C537.098 592.314 537.098 551.153 517.02 378.478l10.039-1.003c20.078 176.69 19.074 219.858-125.49 369.443z m114.447-385.506c-23.09 0-41.161-18.07-41.161-41.161 0-12.047 14.055-109.427 41.16-109.427 27.107 0 41.161 97.38 41.161 109.427 0 23.09-18.07 41.16-41.16 41.16z m0-140.55c-13.051 0-31.122 73.287-31.122 99.389 0 17.067 14.055 31.122 31.122 31.122 17.066 0 31.121-14.055 31.121-31.122 0-26.102-18.07-99.388-31.121-99.388z" p-id="660" fill="#ffffff"></path><path d="M516.016 374.463c-37.145 0-67.263-30.118-67.263-67.263 0-32.125 27.106-185.725 67.263-184.722 5.02 0 10.039 2.008 15.059 7.028 30.117 29.114 51.2 146.572 51.2 177.694 1.003 37.145-29.114 67.263-66.26 67.263z m0-241.945c-28.11 0-57.224 137.537-57.224 174.682 0 31.122 26.102 57.224 57.224 57.224s57.223-26.102 57.223-57.224c0-30.118-22.086-144.565-48.188-170.667-3.012-3.011-6.024-4.015-9.035-4.015z" p-id="661" fill="#ffffff"></path></svg>