<?xml version="1.0" standalone="no"?><!DOCTYPE svg PUBLIC "-//W3C//DTD SVG 1.1//EN" "http://www.w3.org/Graphics/SVG/1.1/DTD/svg11.dtd"><svg t="1620375734781" class="icon" viewBox="0 0 1024 1024" version="1.1" xmlns="http://www.w3.org/2000/svg" p-id="25017" width="48" height="48" xmlns:xlink="http://www.w3.org/1999/xlink"><defs><style type="text/css"></style></defs><path d="M239.729778 371.2h146.261333a25.031111 25.031111 0 0 0 24.462222-25.6 25.031111 25.031111 0 0 0-24.462222-25.6h-146.204444a25.031111 25.031111 0 0 0-24.462223 25.6c0 14.165333 10.979556 25.6 24.462223 25.6z m8.135111 128h195.015111c17.976889 0 32.540444-11.434667 32.540444-25.6a23.04 23.04 0 0 0-9.500444-18.033778 37.717333 37.717333 0 0 0-23.04-7.566222H247.864889c-18.033778 0.056889-32.540444 11.548444-32.483556 25.6 0 14.165333 14.563556 25.6 32.540445 25.6h-0.056889z m-8.135111 128h146.261333a25.031111 25.031111 0 0 0 24.462222-25.6 26.055111 26.055111 0 0 0-7.168-18.090667 24.007111 24.007111 0 0 0-17.294222-7.509333h-146.204444a25.031111 25.031111 0 0 0-24.462223 25.6c0 14.108444 10.979556 25.6 24.462223 25.6z m0 128h146.261333a25.031111 25.031111 0 0 0 24.462222-25.6 26.055111 26.055111 0 0 0-7.168-18.090667 24.007111 24.007111 0 0 0-17.294222-7.509333h-146.204444a25.031111 25.031111 0 0 0-24.462223 25.6c0 14.108444 10.979556 25.6 24.462223 25.6z" fill="#FFFFFF" p-id="25018"></path><path d="M259.697778 189.155556v651.605333c0 57.912889 47.388444 104.96 105.813333 104.96h381.667556c58.424889 0 105.813333-47.047111 105.813333-104.96V204.401778L881.777778 90.055111c5.859556-23.210667-4.778667-36.693333-28.785778-36.693333H286.151111c-6.371556 0-20.650667 3.413333-26.396444 6.257778l-5.575111 2.730666a213.902222 213.902222 0 0 1-69.404445 19.114667l-31.175111 2.389333 106.154667 105.244445zM140.288 32.199111l40.391111-3.072c14.392889-1.137778 36.807111-7.281778 49.777778-13.710222l5.575111-2.787556c13.084444-6.485333 35.498667-11.719111 50.062222-11.719111h566.897778c58.424889 0 94.321778 45.511111 80.099556 101.888l-27.192889 108.088889V840.817778c0 86.926222-71.111111 157.411556-158.72 157.411555h-381.724445c-87.608889 0-158.72-70.542222-158.72-157.411555V210.887111L109.795556 114.631111C68.323556 73.557333 81.92 36.693333 140.288 32.199111z" fill="#FFFFFF" p-id="25019"></path></svg>