<?xml version="1.0" standalone="no"?><!DOCTYPE svg PUBLIC "-//W3C//DTD SVG 1.1//EN" "http://www.w3.org/Graphics/SVG/1.1/DTD/svg11.dtd"><svg t="1620375603503" class="icon" viewBox="0 0 1024 1024" version="1.1" xmlns="http://www.w3.org/2000/svg" p-id="24077" xmlns:xlink="http://www.w3.org/1999/xlink" width="128" height="128"><defs><style type="text/css"></style></defs><path d="M884.363636 618.433939S814.545455 558.545455 603.61697 592.182303c-210.944 33.636848-362.030545 0-362.030546 0v209.873455c0 87.00897 92.284121 157.556364 206.894546 157.556363l260.266666 15.515152c114.253576 0 160.349091-70.283636 160.349091-157.556364" fill="#69C900" p-id="24078"></path><path d="M241.586424 618.433939s86.202182-65.629091 327.540364 0c241.353697 65.598061 299.969939 0 299.969939 0v274.230303a93.121939 93.121939 0 0 1-93.090909 93.184H334.677333c-51.417212 0-93.090909-41.782303-93.090909-93.184V618.433939z" fill="#ACFF51" p-id="24079"></path><path d="M254.603636 353.062788h78.134303c7.19903 0 13.032727-5.864727 13.032728-13.125818a13.079273 13.079273 0 0 0-13.032728-13.110303H254.603636a13.079273 13.079273 0 0 0-13.017212 13.110303c0 7.261091 5.833697 13.125818 13.032728 13.125818zM254.603636 458.038303h78.134303c7.19903 0 13.032727-5.864727 13.032728-13.110303a13.079273 13.079273 0 0 0-13.032728-13.125818H254.603636a13.079273 13.079273 0 0 0-13.017212 13.125818c0 7.245576 5.833697 13.110303 13.032728 13.110303zM254.603636 563.029333h78.134303c7.19903 0 13.032727-5.895758 13.032728-13.125818a13.079273 13.079273 0 0 0-13.032728-13.125818H254.603636a13.079273 13.079273 0 0 0-13.017212 13.125818c0 7.245576 5.833697 13.125818 13.032728 13.125818zM254.603636 668.004848h78.134303c7.19903 0 13.032727-5.880242 13.032728-13.125818a13.079273 13.079273 0 0 0-13.032728-13.125818H254.603636a13.079273 13.079273 0 0 0-13.017212 13.125818c0 7.245576 5.833697 13.125818 13.032728 13.125818z" fill="#417505" p-id="24080"></path><path d="M267.636364 200.145455v651.605333c0 57.918061 46.654061 104.944485 104.137697 104.944485h375.730424c57.483636 0 104.153212-47.010909 104.153212-104.944485V215.427879l28.346182-114.346667c5.771636-23.210667-4.685576-36.708848-28.330667-36.708848H293.624242c-6.252606 0-20.355879 3.366788-26.003394 6.20606l-5.476848 2.761697c-18.804364 9.464242-47.414303 17.501091-68.313212 19.114667l-30.673455 2.389333L267.636364 200.145455zM120.025212 125.626182C79.282424 84.542061 92.532364 47.662545 150.093576 43.209697l39.749818-3.087515c14.196364-1.086061 36.243394-7.292121 48.996848-13.730909l5.492364-2.761697c12.877576-6.485333 34.955636-11.74497 49.291636-11.74497h558.04897c57.514667 0 92.842667 45.568 78.863515 101.934546l-26.794666 108.078545v629.853091c0 86.946909-70.019879 157.432242-156.237576 157.432242H371.774061c-86.279758 0-156.237576-70.562909-156.237576-157.432242V221.897697L120.040727 125.610667z" fill="#2F5800" p-id="24081"></path></svg>