<?xml version="1.0" standalone="no"?><!DOCTYPE svg PUBLIC "-//W3C//DTD SVG 1.1//EN" "http://www.w3.org/Graphics/SVG/1.1/DTD/svg11.dtd"><svg t="1620375072052" class="icon" viewBox="0 0 1024 1024" version="1.1" xmlns="http://www.w3.org/2000/svg" p-id="19603" xmlns:xlink="http://www.w3.org/1999/xlink" width="128" height="128"><defs><style type="text/css"></style></defs><path d="M605.696 534.869333v26.180267H213.060267v-26.180267zM407.517867 260.539733V286.72H213.026133v-26.180267zM466.295467 250.743467v45.738666h-55.057067v-45.738666z" p-id="19604"></path><path d="M422.434133 312.081067h-26.180266V235.178667h26.180266z" p-id="19605"></path><path d="M629.930667 772.369067H245.418667L198.109867 920.234667h479.163733l-47.342933-147.8656z" p-id="19606"></path><path d="M277.981867 469.9136h26.180266V862.549333h-26.180266z" p-id="19607"></path><path d="M272.622933 812.782933h36.898134v49.800534H272.622933z" p-id="19608"></path><path d="M260.983467 948.3264h353.3824v28.125867h68.8128l-5.905067-56.2176H198.109867l-5.905067 56.2176h68.778667v-28.125867z" p-id="19609"></path><path d="M318.1568 508.142933H261.461333l-8.055466 72.942934h72.977066l-8.226133-72.942934z" p-id="19610"></path><path d="M289.792 581.085867m-36.488533 0a36.488533 36.488533 0 1 0 72.977066 0 36.488533 36.488533 0 1 0-72.977066 0Z" p-id="19611"></path><path d="M289.792 508.142933m-28.330667 0a28.330667 28.330667 0 1 0 56.661334 0 28.330667 28.330667 0 1 0-56.661334 0Z" p-id="19612"></path><path d="M277.981867 226.5088v281.873067a13.1072 13.1072 0 0 0 26.180266 0V226.5088z" p-id="19613"></path><path d="M318.1568 233.0624H261.461333l-8.055466 72.942933h72.977066l-8.226133-72.942933z" p-id="19614"></path><path d="M289.792 306.005333m-36.488533 0a36.488533 36.488533 0 1 0 72.977066 0 36.488533 36.488533 0 1 0-72.977066 0Z" p-id="19615"></path><path d="M289.792 233.0624m-28.330667 0a28.330667 28.330667 0 1 0 56.661334 0 28.330667 28.330667 0 1 0-56.661334 0Z" p-id="19616"></path><path d="M277.981867 47.547733v187.255467a13.1072 13.1072 0 0 0 26.180266 0V47.547733z" p-id="19617"></path><path d="M466.261333 285.2864v-0.4096a0.785067 0.785067 0 0 0 0.2048 0.4096zM529.442133 279.313067c-34.884267 0-63.1808 2.491733-63.1808 5.563733v-40.96c0-3.072 28.296533-5.563733 63.1808-5.563733s63.146667 2.491733 63.146667 5.563733v40.96c0-3.072-28.2624-5.563733-63.146667-5.563733zM592.418133 285.2864a0.7168 0.7168 0 0 0 0.170667-0.4096v0.4096z" p-id="19618"></path><path d="M466.261333 257.024v0.477867a0.785067 0.785067 0 0 1 0.238934-0.477867zM535.893333 263.645867c-38.5024 0-69.7344-2.7648-69.7344-6.144v45.294933c0 3.413333 31.232 6.178133 69.7344 6.178133s69.700267-2.7648 69.700267-6.178133V257.501867c0.1024 3.3792-31.095467 6.144-69.700267 6.144zM605.4912 257.024a0.955733 0.955733 0 0 1 0.2048 0.477867v-0.477867z" p-id="19619"></path><path d="M664.814933 498.346667a238.933333 238.933333 0 0 1 53.930667-5.870934c62.429867 0 113.0496 21.7088 113.0496 48.469334s-50.619733 48.469333-113.0496 48.469333-113.0496-21.7088-113.0496-48.469333" p-id="19620"></path></svg>