<?xml version="1.0" standalone="no"?><!DOCTYPE svg PUBLIC "-//W3C//DTD SVG 1.1//EN" "http://www.w3.org/Graphics/SVG/1.1/DTD/svg11.dtd"><svg t="1620378650107" class="icon" viewBox="0 0 1024 1024" version="1.1" xmlns="http://www.w3.org/2000/svg" p-id="25328" width="64" height="64" xmlns:xlink="http://www.w3.org/1999/xlink"><defs><style type="text/css"></style></defs><path d="M351.372549 354.384314h329.286275v51.2H351.372549z" fill="#d81e06" p-id="25329"></path><path d="M764.988235 907.545098h-497.945098c-36.141176 0-70.27451-19.07451-87.341176-50.196078-16.062745-29.113725-16.062745-63.247059 1.003921-91.356863l234.917647-386.509804h199.780393l234.917647 386.509804c17.066667 28.109804 18.070588 63.247059 1.003921 91.356863-16.062745 31.121569-50.196078 50.196078-86.337255 50.196078z m-337.317647-507.984314l-228.894117 376.470589c-14.054902 22.086275-14.054902 48.188235-1.003922 71.278431 14.054902 25.098039 40.156863 40.156863 70.27451 40.156863h497.945098c30.117647 0 56.219608-15.058824 70.27451-40.156863 13.05098-23.090196 12.047059-49.192157-1.003922-71.278431l-228.894118-376.470589h-178.698039z" fill="#d81e06" p-id="25330"></path><path d="M401.568627 746.917647l-7.027451-7.027451c142.556863-147.576471 142.556863-188.737255 122.478432-361.411765l10.039216-1.003921c20.078431 176.690196 19.07451 219.858824-125.490197 369.443137zM516.015686 361.411765c-23.090196 0-41.160784-18.070588-41.160784-41.160785 0-12.047059 14.054902-109.427451 41.160784-109.427451 27.105882 0 41.160784 97.380392 41.160785 109.427451 0 23.090196-18.070588 41.160784-41.160785 41.160785z m0-140.54902c-13.05098 0-31.121569 73.286275-31.121568 99.388235 0 17.066667 14.054902 31.121569 31.121568 31.121569 17.066667 0 31.121569-14.054902 31.121569-31.121569 0-26.101961-18.070588-99.388235-31.121569-99.388235z" fill="#d81e06" p-id="25331"></path><path d="M516.015686 374.462745c-37.145098 0-67.262745-30.117647-67.262745-67.262745 0-32.12549 27.105882-185.72549 67.262745-184.721569 5.019608 0 10.039216 2.007843 15.058824 7.027451 30.117647 29.113725 51.2 146.572549 51.2 177.694118 1.003922 37.145098-29.113725 67.262745-66.258824 67.262745z m0-241.945098c-28.109804 0-57.223529 137.537255-57.223529 174.682353 0 31.121569 26.101961 57.223529 57.223529 57.223529s57.223529-26.101961 57.22353-57.223529c0-30.117647-22.086275-144.564706-48.188236-170.666667-3.011765-3.011765-6.023529-4.015686-9.035294-4.015686z" fill="#d81e06" p-id="25332"></path></svg>