<?xml version="1.0" standalone="no"?><!DOCTYPE svg PUBLIC "-//W3C//DTD SVG 1.1//EN" "http://www.w3.org/Graphics/SVG/1.1/DTD/svg11.dtd"><svg t="1620373283469" class="icon" viewBox="0 0 1024 1024" version="1.1" xmlns="http://www.w3.org/2000/svg" p-id="3120" width="48" height="48" xmlns:xlink="http://www.w3.org/1999/xlink"><defs><style type="text/css"></style></defs><path d="M511.188518 960.233698c-124.999922 0.001023-249.998821-0.101307-374.99772 0.173962-11.285021 0.024559-20.392446-4.217045-28.818349-10.426467-5.928013-4.368494-11.978822-9.367345-15.934924-15.418154-5.233188-8.005324-9.55461-16.986883-12.31242-26.13831-4.058432-13.465686-7.968485-27.333532-9.020444-41.250496-1.089821-14.416338 0.859577-29.140691 2.290159-43.650149 1.645476-16.679891 7.02602-32.426527 12.56313-48.248887 7.358595-21.024849 21.206998-37.913495 32.927947-56.158021 17.848507-27.782763 36.173874-55.259558 54.371328-82.817194 12.935614-19.591197 26.054399-39.061644 38.97978-58.658981 16.48444-24.994254 32.82357-50.084699 49.290613-75.092255 10.290367-15.628956 20.711717-31.17093 31.05325-46.76714 15.684214-23.653723 31.388894-47.295166 47.01171-70.989821 14.515598-22.014386 29.058826-44.013423 43.264363-66.226331 2.157129-3.373841 3.587712-7.869225 3.607154-11.853979 0.24457-51.158147 0.057305-102.31834 0.335644-153.476487 0.031722-5.845125-3.838422-8.374738-6.804986-11.835559-2.52859-2.950192-5.329379-5.77861-8.44023-8.076956-1.89721-1.401929-4.554736-2.036379-6.966669-2.429329-7.711636-1.255597-15.389502-2.057869-22.556739-5.912663-5.523807-2.970658-8.981559-7.03523-10.9504-12.722766-0.223081-0.64366-0.243547-1.396813-0.592494-1.951445-6.604418-10.503215-1.895163-19.812231 3.684926-28.511357 2.336208-3.641947 6.317892-7.353478 10.30674-8.579399 8.519024-2.618641 17.524119-5.058203 26.339902-5.090948 94.131891-0.350994 188.265828-0.26606 282.398742-0.146333 10.809183 0.013303 21.282722 2.049682 30.66644 8.105608 7.120165 4.594645 13.894452 18.405185 11.762905 26.637684-1.474584 5.693676-3.76679 11.429307-6.910387 16.372899-3.942799 6.198166-11.135618 7.959276-17.84032 9.906627-1.617847 0.469698-3.373841 0.704035-5.057179 0.664126-8.583492-0.201591-13.58132 5.441942-19.158339 10.794857-5.086855 4.882194-6.997368 9.997702-6.952342 17.080004 0.302899 48.258097 0.3776 96.521311-0.044002 144.778384-0.074701 8.540514 2.297322 15.427364 6.868431 22.215978 14.624069 21.721721 29.153994 43.506886 43.549865 65.380056 16.275685 24.727171 32.298614 49.621141 48.560996 74.357522 14.856359 22.596647 29.948079 45.038776 44.820811 67.624167 12.636808 19.191084 25.073048 38.513152 37.668924 57.730842 7.28287 11.110035 14.773472 22.083971 22.052249 33.196053 10.425444 15.918551 20.701484 31.934317 31.122835 47.855938 4.842285 7.397481 9.910721 14.647605 14.814404 22.005176 10.466376 15.70468 20.902052 31.429827 31.330566 47.160089 5.352915 8.073886 11.496845 15.763009 15.770172 24.376177 4.954849 9.985422 9.537214 20.503986 11.972683 31.312146 4.031826 17.889439 6.625908 36.143175 8.969279 54.352909 0.896416 6.963599-0.063445 14.299681-1.046842 21.344121-2.261507 16.197914-5.669116 32.222889-12.175297 47.286979-4.018523 9.302877-7.746428 19.286252-16.809851 25.104771-7.394411 4.747117-15.663748 8.128121-23.077601 12.850679-7.980765 5.083785-16.58677 3.719718-25.076118 3.723811C755.729024 960.25007 633.458259 960.232674 511.188518 960.233698zM512.626263 918.333402c116.301819 0 232.603639-0.053212 348.905458 0.116657 7.846712 0.011256 14.57802-2.052752 20.137643-7.143701 7.786337-7.129374 15.771195-14.228049 22.410406-22.369473 6.245238-7.658424 10.191106-16.905018 10.531867-27.194362 0.457418-13.784958 1.548262-27.589358 1.156336-41.35078-0.329505-11.573593-3.155876-22.848381-9.827833-32.766264-9.30083-13.82589-18.609847-27.647687-27.774577-41.563628-13.362332-20.291139-26.554796-40.693818-39.902802-60.995189-10.359952-15.756869-20.875446-31.41243-31.266098-47.148833-11.43954-17.324574-22.795169-34.704406-34.223452-52.036143-14.889105-22.580275-29.824259-45.12985-44.721551-67.703985-14.715143-22.300912-29.398564-44.62229-44.112684-66.924225-12.087293-18.320251-24.186865-36.633339-36.303834-54.934147-11.562337-17.463744-23.115464-34.933627-34.745339-52.352345-8.677637-12.998035-14.605649-27.117614-14.719236-42.820248-0.320295-44.335764-0.506537-88.680738 0.161682-133.00934 0.198521-13.196557-1.477654-24.081465-12.752442-32.661887-3.804652-2.895957-6.771217-5.135974-11.521404-4.646833-2.193968 0.226151-4.429893 0.048095-6.646374 0.048095-39.392172-0.008186-78.785368-0.059352-118.17754 0.071631-2.496867 0.008186-5.564739 0.771573-7.365758 2.335185-4.189416 3.637854-7.356548 8.515954-11.721973 11.871375-3.576455 2.749624-4.105504 5.742794-4.100388 9.671267 0.072655 48.089251 0.196475 96.179526-0.020466 144.268778-0.069585 15.428388-4.692882 29.757744-13.243629 42.673915-9.952676 15.034415-20.12434 29.92352-30.042223 44.979424-17.875113 27.136034-35.612079 54.364165-53.44319 81.528851-21.74321 33.125445-43.48642 66.252937-65.303308 99.330286-15.814174 23.977088-31.756261 47.868217-47.623647 71.809489-20.133549 30.376844-40.265052 60.755736-60.364833 91.155093-10.04068 15.186887-19.677155 30.653137-30.107715 45.565778-9.221012 13.183254-14.826684 27.547403-16.018835 43.444465-0.750083 10.004865-0.796132 20.129456-0.233314 30.147624 0.678452 12.071943 1.288343 24.746614 9.086959 34.589796 7.975649 10.066263 17.139356 19.320021 26.625404 28.009937 5.372358 4.92108 12.629645 6.182816 20.407796 6.166443C281.386692 918.253584 397.005966 918.329309 512.626263 918.333402z" p-id="3121" fill="#ffffff"></path><path d="M521.753131 859.515808c-110.340037 0.007163-220.680075 0.007163-331.020112 0.00307-1.363044 0-2.738367 0.042979-4.088108-0.107447-4.965082-0.553609-5.788843-2.50403-2.977821-6.712889 10.857279-16.255219 21.640879-32.559557 32.55137-48.77896 8.444323-12.55392 17.081027-24.979928 25.550932-37.516452 9.426697-13.951757 18.801205-27.938306 28.099988-41.97602 1.682315-2.538823 3.350304-3.854794 6.195096-1.821485 8.92323 6.378268 19.35072 8.738012 29.844725 9.146311 13.049201 0.50756 26.204825-0.11461 39.235606-1.195222 12.748349-1.057075 23.108301-7.981788 32.159444-16.499789 7.807826-7.347339 14.878872-15.470343 22.410406-23.118534 6.490831-6.592139 9.448186-14.659885 11.382235-23.537066 2.943029-13.501502 8.147564-25.991977 15.933901-37.724183 11.254322-16.957207 28.736485-22.554692 46.348608-28.768207 12.4608-4.396123 25.024953-3.022847 36.632315 0.782829 18.283412 5.994528 36.314067 13.758352 46.090734 32.246425 12.710486 24.036439 32.961716 41.141002 53.822836 57.184397 11.322883 8.708336 25.38004 13.484106 39.564088 17.154705 21.214161 5.490038 42.63196 3.76372 64.036455 3.021823 13.733792-0.475837 26.795273-4.244674 39.375799-9.68457 3.052522-1.320065 5.219885-0.288572 6.951319 2.357697 6.779404 10.359952 13.579273 20.706601 20.406772 31.03483 8.534374 12.911054 17.084097 25.810852 25.66145 38.693254 9.892301 14.857383 19.718087 29.759791 29.767977 44.51075 7.840572 11.508102 16.021905 22.782889 23.930015 34.244942 0.968048 1.402953 2.066055 3.774977 1.503237 4.88731-0.606821 1.198292-3.051499 1.648546-4.78191 2.037403-1.465374 0.329505-3.054569 0.124843-4.588505 0.124843C741.751684 859.509668 631.752408 859.509668 521.753131 859.515808z" p-id="3122" fill="#ffffff"></path></svg>